<mxfile host="app.diagrams.net" agent="Mozilla/5.0 (X11; Linux x86_64; rv:131.0) Gecko/20100101 Firefox/131.0" version="24.7.17">
  <diagram name="Page-1" id="f_oSXpMA19RWespZ0-oS">
    <mxGraphModel dx="1619" dy="901" grid="1" gridSize="10" guides="1" tooltips="1" connect="1" arrows="1" fold="1" page="1" pageScale="1" pageWidth="850" pageHeight="1100" math="0" shadow="0">
      <root>
        <mxCell id="0" />
        <mxCell id="1" parent="0" />
        <mxCell id="xGcioNu-X7Z4MWMmt2jp-2" value="" style="rounded=1;whiteSpace=wrap;html=1;" parent="1" vertex="1">
          <mxGeometry x="50" y="310" width="650" height="190" as="geometry" />
        </mxCell>
        <mxCell id="xGcioNu-X7Z4MWMmt2jp-3" value="tick()" style="rounded=1;whiteSpace=wrap;html=1;" parent="1" vertex="1">
          <mxGeometry x="405" y="110" width="130" height="40" as="geometry" />
        </mxCell>
        <mxCell id="xGcioNu-X7Z4MWMmt2jp-4" value="Assignment2.m&#39;s `run` Function" style="text;html=1;align=center;verticalAlign=middle;resizable=0;points=[];autosize=1;strokeColor=none;fillColor=none;" parent="1" vertex="1">
          <mxGeometry x="380" y="80" width="190" height="30" as="geometry" />
        </mxCell>
        <mxCell id="xGcioNu-X7Z4MWMmt2jp-5" style="edgeStyle=orthogonalEdgeStyle;rounded=0;orthogonalLoop=1;jettySize=auto;html=1;exitX=0.5;exitY=1;exitDx=0;exitDy=0;entryX=1;entryY=0.5;entryDx=0;entryDy=0;" parent="1" source="xGcioNu-X7Z4MWMmt2jp-3" target="xGcioNu-X7Z4MWMmt2jp-3" edge="1">
          <mxGeometry relative="1" as="geometry" />
        </mxCell>
        <mxCell id="xGcioNu-X7Z4MWMmt2jp-6" value="runs forever (for now)" style="text;html=1;align=center;verticalAlign=middle;resizable=0;points=[];autosize=1;strokeColor=none;fillColor=none;" parent="1" vertex="1">
          <mxGeometry x="545" y="120" width="140" height="30" as="geometry" />
        </mxCell>
        <mxCell id="xGcioNu-X7Z4MWMmt2jp-7" value="Assignment2.m&#39;s `tick` Function" style="text;html=1;align=center;verticalAlign=middle;resizable=0;points=[];autosize=1;strokeColor=none;fillColor=none;" parent="1" vertex="1">
          <mxGeometry x="285" y="280" width="190" height="30" as="geometry" />
        </mxCell>
        <mxCell id="xGcioNu-X7Z4MWMmt2jp-41" style="edgeStyle=orthogonalEdgeStyle;rounded=0;orthogonalLoop=1;jettySize=auto;html=1;exitX=1;exitY=0.5;exitDx=0;exitDy=0;entryX=0;entryY=0.5;entryDx=0;entryDy=0;" parent="1" source="xGcioNu-X7Z4MWMmt2jp-8" target="xGcioNu-X7Z4MWMmt2jp-39" edge="1">
          <mxGeometry relative="1" as="geometry" />
        </mxCell>
        <mxCell id="xGcioNu-X7Z4MWMmt2jp-8" value="conveyor.tick()" style="rounded=1;whiteSpace=wrap;html=1;" parent="1" vertex="1">
          <mxGeometry x="80" y="420" width="130" height="60" as="geometry" />
        </mxCell>
        <mxCell id="xGcioNu-X7Z4MWMmt2jp-14" style="edgeStyle=orthogonalEdgeStyle;rounded=0;orthogonalLoop=1;jettySize=auto;html=1;exitX=0.5;exitY=1;exitDx=0;exitDy=0;entryX=0.5;entryY=0;entryDx=0;entryDy=0;" parent="1" source="xGcioNu-X7Z4MWMmt2jp-9" target="xGcioNu-X7Z4MWMmt2jp-12" edge="1">
          <mxGeometry relative="1" as="geometry" />
        </mxCell>
        <mxCell id="xGcioNu-X7Z4MWMmt2jp-9" value="&lt;div&gt;RubbishObject&lt;/div&gt;" style="rounded=1;whiteSpace=wrap;html=1;" parent="1" vertex="1">
          <mxGeometry x="110" y="610" width="120" height="60" as="geometry" />
        </mxCell>
        <mxCell id="xGcioNu-X7Z4MWMmt2jp-10" value="Class Hierarchy" style="text;html=1;align=center;verticalAlign=middle;resizable=0;points=[];autosize=1;strokeColor=none;fillColor=none;fontSize=20;" parent="1" vertex="1">
          <mxGeometry x="355" y="560" width="160" height="40" as="geometry" />
        </mxCell>
        <mxCell id="xGcioNu-X7Z4MWMmt2jp-27" style="edgeStyle=orthogonalEdgeStyle;rounded=0;orthogonalLoop=1;jettySize=auto;html=1;exitX=0.5;exitY=1;exitDx=0;exitDy=0;entryX=0.5;entryY=0;entryDx=0;entryDy=0;" parent="1" source="xGcioNu-X7Z4MWMmt2jp-12" target="xGcioNu-X7Z4MWMmt2jp-25" edge="1">
          <mxGeometry relative="1" as="geometry" />
        </mxCell>
        <mxCell id="xGcioNu-X7Z4MWMmt2jp-12" value="GenericRenderable" style="rounded=1;whiteSpace=wrap;html=1;" parent="1" vertex="1">
          <mxGeometry x="110" y="700" width="120" height="60" as="geometry" />
        </mxCell>
        <mxCell id="xGcioNu-X7Z4MWMmt2jp-31" style="edgeStyle=orthogonalEdgeStyle;rounded=0;orthogonalLoop=1;jettySize=auto;html=1;exitX=0.5;exitY=1;exitDx=0;exitDy=0;entryX=1;entryY=0.25;entryDx=0;entryDy=0;" parent="1" source="xGcioNu-X7Z4MWMmt2jp-13" target="xGcioNu-X7Z4MWMmt2jp-25" edge="1">
          <mxGeometry relative="1" as="geometry" />
        </mxCell>
        <mxCell id="xGcioNu-X7Z4MWMmt2jp-13" value="ABBController" style="rounded=1;whiteSpace=wrap;html=1;" parent="1" vertex="1">
          <mxGeometry x="340" y="610" width="120" height="60" as="geometry" />
        </mxCell>
        <mxCell id="xGcioNu-X7Z4MWMmt2jp-15" value="inherits" style="text;html=1;align=center;verticalAlign=middle;resizable=0;points=[];autosize=1;strokeColor=none;fillColor=none;" parent="1" vertex="1">
          <mxGeometry x="170" y="670" width="60" height="30" as="geometry" />
        </mxCell>
        <mxCell id="xGcioNu-X7Z4MWMmt2jp-17" style="edgeStyle=orthogonalEdgeStyle;rounded=0;orthogonalLoop=1;jettySize=auto;html=1;exitX=0.5;exitY=1;exitDx=0;exitDy=0;entryX=1;entryY=0.5;entryDx=0;entryDy=0;" parent="1" source="xGcioNu-X7Z4MWMmt2jp-16" target="xGcioNu-X7Z4MWMmt2jp-12" edge="1">
          <mxGeometry relative="1" as="geometry" />
        </mxCell>
        <mxCell id="xGcioNu-X7Z4MWMmt2jp-16" value="ConveyorObject" style="rounded=1;whiteSpace=wrap;html=1;" parent="1" vertex="1">
          <mxGeometry x="240" y="610" width="90" height="60" as="geometry" />
        </mxCell>
        <mxCell id="xGcioNu-X7Z4MWMmt2jp-25" value="handle" style="rounded=1;whiteSpace=wrap;html=1;" parent="1" vertex="1">
          <mxGeometry x="110" y="790" width="120" height="60" as="geometry" />
        </mxCell>
        <mxCell id="xGcioNu-X7Z4MWMmt2jp-35" style="edgeStyle=orthogonalEdgeStyle;rounded=0;orthogonalLoop=1;jettySize=auto;html=1;exitX=0.5;exitY=1;exitDx=0;exitDy=0;entryX=1;entryY=0.5;entryDx=0;entryDy=0;" parent="1" source="xGcioNu-X7Z4MWMmt2jp-34" target="xGcioNu-X7Z4MWMmt2jp-25" edge="1">
          <mxGeometry relative="1" as="geometry" />
        </mxCell>
        <mxCell id="xGcioNu-X7Z4MWMmt2jp-34" value="UR3EController" style="rounded=1;whiteSpace=wrap;html=1;" parent="1" vertex="1">
          <mxGeometry x="470" y="610" width="120" height="60" as="geometry" />
        </mxCell>
        <mxCell id="xGcioNu-X7Z4MWMmt2jp-42" style="edgeStyle=orthogonalEdgeStyle;rounded=0;orthogonalLoop=1;jettySize=auto;html=1;exitX=1;exitY=0.5;exitDx=0;exitDy=0;entryX=0;entryY=0.5;entryDx=0;entryDy=0;" parent="1" source="xGcioNu-X7Z4MWMmt2jp-39" target="xGcioNu-X7Z4MWMmt2jp-40" edge="1">
          <mxGeometry relative="1" as="geometry" />
        </mxCell>
        <mxCell id="xGcioNu-X7Z4MWMmt2jp-54" style="edgeStyle=orthogonalEdgeStyle;rounded=0;orthogonalLoop=1;jettySize=auto;html=1;exitX=0.5;exitY=0;exitDx=0;exitDy=0;entryX=0.5;entryY=1;entryDx=0;entryDy=0;" parent="1" source="xGcioNu-X7Z4MWMmt2jp-39" target="xGcioNu-X7Z4MWMmt2jp-51" edge="1">
          <mxGeometry relative="1" as="geometry" />
        </mxCell>
        <mxCell id="xGcioNu-X7Z4MWMmt2jp-39" value="ur3ec.tick()" style="rounded=1;whiteSpace=wrap;html=1;" parent="1" vertex="1">
          <mxGeometry x="230" y="420" width="130" height="60" as="geometry" />
        </mxCell>
        <mxCell id="xGcioNu-X7Z4MWMmt2jp-56" style="edgeStyle=orthogonalEdgeStyle;rounded=0;orthogonalLoop=1;jettySize=auto;html=1;exitX=0.5;exitY=0;exitDx=0;exitDy=0;entryX=0.5;entryY=1;entryDx=0;entryDy=0;" parent="1" source="xGcioNu-X7Z4MWMmt2jp-40" target="xGcioNu-X7Z4MWMmt2jp-55" edge="1">
          <mxGeometry relative="1" as="geometry" />
        </mxCell>
        <mxCell id="xGcioNu-X7Z4MWMmt2jp-58" style="edgeStyle=orthogonalEdgeStyle;rounded=0;orthogonalLoop=1;jettySize=auto;html=1;exitX=1;exitY=0.5;exitDx=0;exitDy=0;entryX=0;entryY=0.5;entryDx=0;entryDy=0;" parent="1" source="xGcioNu-X7Z4MWMmt2jp-40" target="xGcioNu-X7Z4MWMmt2jp-57" edge="1">
          <mxGeometry relative="1" as="geometry" />
        </mxCell>
        <mxCell id="xGcioNu-X7Z4MWMmt2jp-40" value="abbc.tick()" style="rounded=1;whiteSpace=wrap;html=1;" parent="1" vertex="1">
          <mxGeometry x="380" y="420" width="130" height="60" as="geometry" />
        </mxCell>
        <mxCell id="xGcioNu-X7Z4MWMmt2jp-43" value="&amp;nbsp;" style="text;whiteSpace=wrap;html=1;" parent="1" vertex="1">
          <mxGeometry x="340" y="390" width="40" height="40" as="geometry" />
        </mxCell>
        <mxCell id="xGcioNu-X7Z4MWMmt2jp-70" style="edgeStyle=orthogonalEdgeStyle;rounded=0;orthogonalLoop=1;jettySize=auto;html=1;exitX=1;exitY=0.5;exitDx=0;exitDy=0;entryX=0;entryY=0.5;entryDx=0;entryDy=0;" parent="1" source="xGcioNu-X7Z4MWMmt2jp-51" target="xGcioNu-X7Z4MWMmt2jp-64" edge="1">
          <mxGeometry relative="1" as="geometry">
            <Array as="points">
              <mxPoint x="330" y="390" />
              <mxPoint x="330" y="370" />
            </Array>
          </mxGeometry>
        </mxCell>
        <mxCell id="xGcioNu-X7Z4MWMmt2jp-51" value="Q array" style="rounded=1;whiteSpace=wrap;html=1;" parent="1" vertex="1">
          <mxGeometry x="275" y="380" width="45" height="20" as="geometry" />
        </mxCell>
        <mxCell id="xGcioNu-X7Z4MWMmt2jp-69" style="edgeStyle=orthogonalEdgeStyle;rounded=0;orthogonalLoop=1;jettySize=auto;html=1;exitX=1;exitY=0.5;exitDx=0;exitDy=0;entryX=0;entryY=0.5;entryDx=0;entryDy=0;" parent="1" source="xGcioNu-X7Z4MWMmt2jp-55" target="xGcioNu-X7Z4MWMmt2jp-65" edge="1">
          <mxGeometry relative="1" as="geometry" />
        </mxCell>
        <mxCell id="xGcioNu-X7Z4MWMmt2jp-55" value="Q array" style="rounded=1;whiteSpace=wrap;html=1;" parent="1" vertex="1">
          <mxGeometry x="420" y="380" width="45" height="20" as="geometry" />
        </mxCell>
        <mxCell id="xGcioNu-X7Z4MWMmt2jp-60" style="edgeStyle=orthogonalEdgeStyle;rounded=0;orthogonalLoop=1;jettySize=auto;html=1;exitX=1;exitY=0.5;exitDx=0;exitDy=0;entryX=0;entryY=0.5;entryDx=0;entryDy=0;" parent="1" source="xGcioNu-X7Z4MWMmt2jp-57" target="xGcioNu-X7Z4MWMmt2jp-8" edge="1">
          <mxGeometry relative="1" as="geometry">
            <Array as="points">
              <mxPoint x="680" y="450" />
              <mxPoint x="680" y="340" />
              <mxPoint x="60" y="340" />
              <mxPoint x="60" y="450" />
            </Array>
          </mxGeometry>
        </mxCell>
        <mxCell id="xGcioNu-X7Z4MWMmt2jp-57" value="RenderAll()" style="rounded=1;whiteSpace=wrap;html=1;" parent="1" vertex="1">
          <mxGeometry x="530" y="420" width="130" height="60" as="geometry" />
        </mxCell>
        <mxCell id="xGcioNu-X7Z4MWMmt2jp-64" value="renderQueue1" style="rounded=1;whiteSpace=wrap;html=1;" parent="1" vertex="1">
          <mxGeometry x="530" y="360" width="90" height="20" as="geometry" />
        </mxCell>
        <mxCell id="xGcioNu-X7Z4MWMmt2jp-65" value="renderQueue2" style="rounded=1;whiteSpace=wrap;html=1;" parent="1" vertex="1">
          <mxGeometry x="530" y="390" width="90" height="20" as="geometry" />
        </mxCell>
        <mxCell id="xGcioNu-X7Z4MWMmt2jp-71" style="edgeStyle=orthogonalEdgeStyle;rounded=0;orthogonalLoop=1;jettySize=auto;html=1;exitX=1;exitY=0.5;exitDx=0;exitDy=0;entryX=0.931;entryY=-0.009;entryDx=0;entryDy=0;entryPerimeter=0;" parent="1" source="xGcioNu-X7Z4MWMmt2jp-64" target="xGcioNu-X7Z4MWMmt2jp-57" edge="1">
          <mxGeometry relative="1" as="geometry" />
        </mxCell>
        <mxCell id="xGcioNu-X7Z4MWMmt2jp-72" style="edgeStyle=orthogonalEdgeStyle;rounded=0;orthogonalLoop=1;jettySize=auto;html=1;exitX=1;exitY=0.5;exitDx=0;exitDy=0;entryX=0.804;entryY=-0.003;entryDx=0;entryDy=0;entryPerimeter=0;" parent="1" source="xGcioNu-X7Z4MWMmt2jp-65" target="xGcioNu-X7Z4MWMmt2jp-57" edge="1">
          <mxGeometry relative="1" as="geometry" />
        </mxCell>
        <mxCell id="xGcioNu-X7Z4MWMmt2jp-74" value="" style="rounded=1;whiteSpace=wrap;html=1;arcSize=5;" parent="1" vertex="1">
          <mxGeometry x="40" y="40" width="260" height="150" as="geometry" />
        </mxCell>
        <mxCell id="xGcioNu-X7Z4MWMmt2jp-75" value="&lt;div align=&quot;left&quot;&gt;&amp;nbsp;&amp;nbsp;&amp;nbsp;&amp;nbsp; A2.m Members&lt;/div&gt;" style="rounded=1;whiteSpace=wrap;html=1;arcSize=27;align=left;" parent="1" vertex="1">
          <mxGeometry x="40" y="40" width="260" height="30" as="geometry" />
        </mxCell>
        <mxCell id="xGcioNu-X7Z4MWMmt2jp-77" value="&lt;div align=&quot;right&quot;&gt;&lt;div&gt;&lt;div&gt;&lt;font&gt;class&lt;br&gt;RubbishObject&lt;br&gt;&lt;/font&gt;&lt;font&gt;ConveyorObject&lt;br&gt;&lt;/font&gt;&lt;font&gt;ABBController&lt;br&gt;&lt;/font&gt;&lt;font&gt;UR3EController&lt;/font&gt;&lt;/div&gt;&lt;/div&gt;&lt;div&gt;RenderQueue&lt;/div&gt;&lt;div&gt;RenderQueue&lt;br&gt;&lt;/div&gt;&lt;div&gt;&lt;br&gt;&lt;/div&gt;&lt;/div&gt;" style="text;html=1;align=right;verticalAlign=top;whiteSpace=wrap;rounded=0;fontFamily=monospace;fontColor=#0DFF4D;horizontal=1;" parent="1" vertex="1">
          <mxGeometry x="40" y="70" width="115" height="90" as="geometry" />
        </mxCell>
        <mxCell id="xGcioNu-X7Z4MWMmt2jp-78" value="member name&lt;br&gt;rubbish[]&lt;br&gt;conveyor&lt;br&gt;&lt;div&gt;abbc&lt;/div&gt;&lt;div&gt;ur3ec&lt;/div&gt;&lt;div&gt;renderQueue1&lt;/div&gt;&lt;div&gt;renderQueue2&lt;br&gt;&lt;/div&gt;" style="text;html=1;align=left;verticalAlign=top;whiteSpace=wrap;rounded=0;fontFamily=monospace;fontColor=#0F97FF;" parent="1" vertex="1">
          <mxGeometry x="160" y="70" width="115" height="90" as="geometry" />
        </mxCell>
      </root>
    </mxGraphModel>
  </diagram>
</mxfile>
